<?xml version="1.0" encoding="utf-8"?>
<!-- Generator: Adobe Illustrator 26.0.1, SVG Export Plug-In . SVG Version: 6.00 Build 0)  -->
<svg version="1.1" id="icon-white_00000049928808402111446130000018089890350686027963_"
	 xmlns="http://www.w3.org/2000/svg" xmlns:xlink="http://www.w3.org/1999/xlink" x="0px" y="0px" viewBox="0 0 4096 4096"
	 style="enable-background:new 0 0 4096 4096;" xml:space="preserve">
<style type="text/css">
	.st0{fill:#FFFFFF;}
</style>
<path id="icon-white" class="st0" d="M2048,0L2048,0C916.92,0,0,916.92,0,2048v0c0,1131.08,916.92,2048,2048,2048h0
	c1131.08,0,2048-916.92,2048-2048v0C4096,916.92,3179.08,0,2048,0z M535.59,2529.52c-67.9,0-133.01-26.97-181.02-74.98
	c-48.01-48.01-74.98-113.12-74.98-181.02s26.97-133.01,74.98-181.02l1024-1024c48.01-48.01,113.12-74.98,181.02-74.98
	s133.01,26.97,181.02,74.98c48.01,48.01,74.98,113.12,74.98,181.02c0,67.9-26.97,133.01-74.98,181.02l-1024,1024
	C668.6,2502.55,603.49,2529.52,535.59,2529.52z M2233.24,2224.7l-488.41,512c-46.86,49.13-111.33,77.63-179.2,79.23
	c-2.01,0.05-4.03,0.07-6.04,0.07c-65.73,0-129.02-25.29-176.69-70.76c-49.13-46.86-77.63-111.33-79.23-179.2
	c-1.6-67.88,23.83-133.61,70.69-182.74l488.41-512c46.86-49.13,111.32-77.63,179.2-79.23c67.9-1.58,133.61,23.83,182.74,70.69
	c49.13,46.86,77.63,111.32,79.23,179.2C2305.53,2109.84,2280.1,2175.57,2233.24,2224.7z M2324.11,1634.41
	c-0.79-1.92-1.58-3.87-2.32-5.81c-0.75-1.94-1.49-3.92-2.19-5.87c-0.7-1.96-1.39-3.95-2.05-5.93c-0.65-1.97-1.29-3.98-1.9-5.97
	c-0.6-1.99-1.19-4.01-1.75-6.02c-0.56-2-1.1-4.04-1.61-6.06c-0.51-2.01-1-4.07-1.47-6.09c-0.46-2.04-0.9-4.1-1.31-6.14
	s-0.8-4.12-1.16-6.17c-0.37-2.05-0.71-4.14-1.02-6.2c-0.31-2.06-0.6-4.16-0.86-6.22c-0.26-2.08-0.5-4.18-0.7-6.25
	c-0.21-2.08-0.4-4.19-0.56-6.27c-0.15-2.09-0.29-4.21-0.39-6.29c-0.11-2.09-0.19-4.22-0.24-6.31c-0.06-2.09-0.08-4.22-0.08-6.31
	c0-2.1,0.02-4.22,0.08-6.32c0.05-2.09,0.13-4.21,0.24-6.3c0.1-2.09,0.24-4.2,0.39-6.29c0.16-2.08,0.35-4.19,0.56-6.27
	c0.2-2.07,0.44-4.18,0.7-6.25s0.55-4.16,0.86-6.22c0.31-2.06,0.65-4.15,1.02-6.2c0.36-2.05,0.75-4.13,1.16-6.17s0.85-4.11,1.31-6.14
	c0.47-2.03,0.96-4.08,1.47-6.1c0.51-2.01,1.05-4.05,1.61-6.06c0.56-2,1.15-4.02,1.75-6.01c0.61-1.99,1.25-4,1.9-5.97
	c0.66-1.98,1.35-3.97,2.05-5.93c0.7-1.95,1.44-3.93,2.19-5.87c0.74-1.94,1.53-3.89,2.32-5.82c0.8-1.92,1.63-3.85,2.47-5.75
	c0.84-1.9,1.72-3.82,2.61-5.7c0.88-1.88,1.81-3.78,2.74-5.63c0.93-1.86,1.9-3.74,2.88-5.57c0.97-1.84,1.99-3.69,3.01-5.5
	c1.02-1.81,2.08-3.64,3.15-5.42c1.06-1.79,2.17-3.59,3.27-5.35c1.11-1.76,2.26-3.53,3.41-5.27c1.16-1.73,2.35-3.48,3.54-5.18
	c1.2-1.71,2.43-3.42,3.67-5.1c1.24-1.68,2.51-3.37,3.79-5.01c1.28-1.65,2.6-3.31,3.92-4.92c1.32-1.62,2.68-3.24,4.04-4.83
	c1.37-1.58,2.77-3.17,4.17-4.72c1.41-1.56,2.85-3.11,4.29-4.63c1.45-1.52,2.93-3.04,4.41-4.52c1.48-1.48,3-2.96,4.52-4.41
	c1.52-1.44,3.07-2.88,4.63-4.29c1.55-1.4,3.14-2.8,4.72-4.16c1.59-1.37,3.21-2.73,4.83-4.05c1.61-1.32,3.27-2.64,4.92-3.92
	c1.64-1.28,3.33-2.55,5.01-3.79c1.67-1.24,3.39-2.47,5.1-3.67c1.7-1.19,3.45-2.38,5.18-3.54c1.74-1.15,3.51-2.3,5.27-3.41
	c1.76-1.1,3.56-2.21,5.35-3.27c1.78-1.07,3.61-2.13,5.42-3.15c1.81-1.02,3.66-2.03,5.5-3.01c1.83-0.98,3.71-1.95,5.56-2.88
	c1.86-0.93,3.76-1.86,5.64-2.74c1.88-0.89,3.79-1.77,5.7-2.61c1.9-0.84,3.83-1.67,5.75-2.47c1.92-0.79,3.88-1.57,5.82-2.32
	c1.94-0.75,3.92-1.49,5.87-2.19c1.96-0.7,3.95-1.39,5.92-2.04c1.98-0.66,3.99-1.3,5.98-1.9c1.99-0.61,4.01-1.2,6.01-1.76
	c2.01-0.56,4.05-1.1,6.06-1.61c2.02-0.51,4.07-1,6.1-1.46c2.03-0.46,4.1-0.91,6.14-1.32s4.12-0.8,6.17-1.16
	c2.05-0.36,4.14-0.7,6.2-1.02c2.06-0.31,4.15-0.6,6.22-0.86c2.07-0.26,4.18-0.49,6.25-0.7c2.08-0.21,4.19-0.4,6.27-0.56
	c2.09-0.15,4.2-0.29,6.29-0.39c2.09-0.11,4.21-0.19,6.3-0.24c4.2-0.11,8.44-0.11,12.63,0c2.09,0.05,4.22,0.13,6.31,0.24
	c2.08,0.1,4.2,0.24,6.29,0.39c2.08,0.16,4.19,0.35,6.27,0.56c2.07,0.21,4.17,0.44,6.25,0.7c2.06,0.26,4.16,0.55,6.22,0.86
	c2.06,0.32,4.15,0.66,6.2,1.02c2.05,0.36,4.13,0.75,6.17,1.16s4.1,0.86,6.13,1.32c2.03,0.46,4.08,0.95,6.1,1.46
	c2.02,0.51,4.06,1.05,6.06,1.61c2.01,0.56,4.03,1.15,6.02,1.76c1.99,0.6,4,1.24,5.97,1.9c1.97,0.65,3.97,1.34,5.92,2.04
	c1.96,0.7,3.94,1.44,5.88,2.19c1.93,0.75,3.89,1.53,5.81,2.32c1.92,0.8,3.86,1.63,5.76,2.47c1.9,0.84,3.82,1.72,5.7,2.61
	c1.88,0.88,3.77,1.81,5.63,2.74c1.86,0.93,3.73,1.9,5.57,2.88c1.83,0.98,3.68,1.99,5.49,3.01c1.82,1.02,3.64,2.08,5.43,3.15
	c1.79,1.06,3.58,2.17,5.35,3.27c1.76,1.11,3.53,2.26,5.26,3.41c1.74,1.16,3.48,2.35,5.19,3.54c1.71,1.2,3.42,2.43,5.1,3.67
	c1.68,1.24,3.36,2.51,5.01,3.79c1.65,1.28,3.3,2.6,4.92,3.92c1.62,1.32,3.24,2.68,4.82,4.05c1.59,1.36,3.18,2.76,4.73,4.16
	c1.55,1.41,3.11,2.85,4.63,4.29c1.52,1.45,3.04,2.93,4.52,4.41c1.48,1.48,2.96,3,4.41,4.52c1.44,1.52,2.88,3.07,4.29,4.63
	c1.4,1.55,2.8,3.14,4.16,4.72c1.36,1.59,2.72,3.21,4.05,4.83c1.32,1.61,2.63,3.27,3.91,4.92c1.28,1.64,2.56,3.33,3.8,5.01
	c1.23,1.68,2.47,3.39,3.67,5.1c1.19,1.7,2.38,3.45,3.53,5.18c1.16,1.74,2.3,3.51,3.41,5.27c1.11,1.76,2.21,3.56,3.28,5.35
	c1.07,1.78,2.12,3.61,3.15,5.42c1.02,1.81,2.03,3.66,3.01,5.5c0.98,1.83,1.95,3.71,2.88,5.57c0.93,1.85,1.85,3.75,2.74,5.63
	c0.89,1.88,1.76,3.8,2.61,5.7c0.84,1.9,1.67,3.83,2.46,5.75c0.8,1.93,1.58,3.88,2.33,5.82s1.48,3.92,2.19,5.87
	c0.7,1.96,1.39,3.95,2.04,5.93c0.66,1.97,1.3,3.98,1.9,5.97c0.61,1.99,1.2,4.01,1.76,6.01c0.56,2.01,1.1,4.05,1.61,6.06
	c0.51,2.02,1,4.07,1.46,6.1s0.9,4.1,1.31,6.14c0.42,2.04,0.81,4.12,1.17,6.17c0.36,2.05,0.7,4.14,1.01,6.2
	c0.31,2.06,0.6,4.15,0.86,6.22c0.26,2.07,0.5,4.18,0.71,6.25c0.21,2.08,0.4,4.19,0.55,6.27c0.16,2.09,0.29,4.2,0.4,6.29
	c0.1,2.09,0.18,4.21,0.24,6.3c0.05,2.1,0.08,4.22,0.08,6.32c0,2.09-0.03,4.22-0.08,6.31c-0.06,2.09-0.14,4.22-0.24,6.31
	c-0.11,2.08-0.24,4.2-0.4,6.29c-0.15,2.08-0.34,4.19-0.55,6.27c-0.21,2.07-0.45,4.17-0.71,6.25c-0.26,2.06-0.55,4.16-0.86,6.22
	c-0.31,2.06-0.65,4.15-1.01,6.2c-0.36,2.05-0.75,4.13-1.17,6.17c-0.41,2.04-0.85,4.1-1.31,6.14c-0.46,2.02-0.95,4.08-1.46,6.09
	c-0.51,2.02-1.05,4.06-1.61,6.06c-0.56,2.01-1.15,4.03-1.76,6.02c-0.6,1.99-1.24,4-1.9,5.97c-0.65,1.98-1.34,3.97-2.04,5.93
	c-0.71,1.95-1.44,3.93-2.19,5.87c-0.75,1.94-1.53,3.89-2.33,5.81c-0.79,1.92-1.62,3.86-2.46,5.76c-0.85,1.9-1.72,3.82-2.61,5.7
	c-0.89,1.88-1.81,3.78-2.74,5.63c-0.93,1.86-1.9,3.73-2.88,5.57c-0.98,1.84-1.99,3.69-3.01,5.5c-1.03,1.81-2.08,3.63-3.15,5.42
	c-1.07,1.79-2.17,3.59-3.28,5.35c-1.11,1.76-2.25,3.53-3.41,5.26c-1.15,1.74-2.34,3.48-3.53,5.19c-1.2,1.71-2.44,3.42-3.67,5.1
	c-1.24,1.68-2.52,3.36-3.8,5.01s-2.59,3.3-3.91,4.92c-1.33,1.62-2.69,3.24-4.05,4.82c-1.36,1.59-2.76,3.18-4.16,4.73
	c-1.41,1.55-2.85,3.11-4.29,4.63c-1.45,1.52-2.93,3.04-4.41,4.52c-1.48,1.48-3,2.96-4.52,4.41c-1.52,1.44-3.08,2.88-4.63,4.29
	c-1.55,1.4-3.14,2.8-4.73,4.16c-1.58,1.36-3.2,2.72-4.82,4.05c-1.62,1.32-3.27,2.63-4.92,3.92c-1.65,1.27-3.33,2.55-5.01,3.79
	c-1.68,1.24-3.39,2.47-5.1,3.67c-1.71,1.19-3.45,2.38-5.19,3.53c-1.73,1.16-3.5,2.3-5.26,3.41c-1.77,1.11-3.56,2.22-5.35,3.28
	c-1.79,1.07-3.61,2.13-5.43,3.15c-1.81,1.02-3.66,2.03-5.49,3.01c-1.84,0.98-3.71,1.95-5.57,2.88c-1.86,0.93-3.75,1.85-5.63,2.74
	c-1.88,0.89-3.8,1.77-5.7,2.61c-1.9,0.84-3.84,1.67-5.76,2.46c-1.92,0.8-3.88,1.58-5.81,2.33c-1.94,0.75-3.92,1.49-5.88,2.19
	c-1.95,0.7-3.95,1.39-5.92,2.04c-1.97,0.66-3.98,1.3-5.97,1.9c-1.99,0.61-4.01,1.2-6.02,1.76c-2,0.56-4.04,1.1-6.06,1.61
	c-2.02,0.51-4.07,1-6.1,1.46c-2.03,0.46-4.09,0.91-6.13,1.32s-4.12,0.8-6.17,1.16s-4.14,0.7-6.2,1.02c-2.06,0.31-4.16,0.6-6.22,0.86
	c-2.08,0.26-4.18,0.49-6.25,0.7c-2.08,0.21-4.19,0.4-6.27,0.56c-2.09,0.15-4.21,0.29-6.29,0.39c-2.09,0.11-4.22,0.19-6.31,0.24
	c-2.09,0.05-4.22,0.08-6.31,0.08c-2.1,0-4.22-0.03-6.32-0.08c-2.09-0.05-4.21-0.13-6.3-0.24c-2.09-0.1-4.2-0.24-6.29-0.39
	c-2.08-0.16-4.19-0.35-6.27-0.56c-2.07-0.21-4.18-0.44-6.25-0.7c-2.07-0.26-4.16-0.55-6.22-0.86c-2.06-0.32-4.15-0.66-6.2-1.02
	c-2.05-0.36-4.13-0.75-6.17-1.16s-4.11-0.86-6.14-1.32s-4.08-0.95-6.1-1.46c-2.01-0.51-4.05-1.05-6.06-1.61
	c-2-0.56-4.02-1.15-6.01-1.76c-1.99-0.6-4-1.24-5.98-1.9c-1.97-0.65-3.96-1.34-5.92-2.04c-1.95-0.7-3.93-1.44-5.87-2.19
	c-1.94-0.75-3.9-1.53-5.82-2.33c-1.92-0.79-3.85-1.62-5.75-2.46c-1.91-0.84-3.82-1.72-5.7-2.61c-1.88-0.89-3.78-1.81-5.64-2.74
	c-1.85-0.93-3.73-1.9-5.56-2.88c-1.84-0.98-3.69-1.99-5.5-3.01c-1.81-1.02-3.64-2.08-5.42-3.15c-1.79-1.06-3.59-2.17-5.35-3.28
	c-1.76-1.11-3.53-2.25-5.27-3.41c-1.73-1.15-3.48-2.34-5.18-3.53c-1.71-1.2-3.43-2.43-5.1-3.67c-1.68-1.24-3.37-2.52-5.01-3.79
	c-1.65-1.29-3.31-2.6-4.92-3.92c-1.62-1.33-3.24-2.69-4.83-4.05c-1.58-1.36-3.17-2.76-4.72-4.16c-1.56-1.41-3.11-2.85-4.63-4.29
	c-1.52-1.45-3.04-2.93-4.52-4.41c-1.48-1.48-2.96-3-4.41-4.52c-1.44-1.52-2.88-3.08-4.29-4.63c-1.4-1.55-2.8-3.14-4.17-4.73
	c-1.36-1.58-2.72-3.2-4.04-4.82c-1.32-1.62-2.64-3.27-3.92-4.92c-1.28-1.65-2.55-3.33-3.79-5.01c-1.24-1.68-2.47-3.39-3.67-5.1
	c-1.19-1.71-2.38-3.45-3.54-5.19c-1.15-1.73-2.3-3.5-3.41-5.26c-1.1-1.76-2.21-3.56-3.27-5.35c-1.07-1.79-2.13-3.61-3.15-5.42
	c-1.02-1.81-2.04-3.66-3.01-5.5c-0.98-1.84-1.95-3.71-2.88-5.57c-0.93-1.85-1.86-3.75-2.74-5.63c-0.89-1.88-1.77-3.8-2.61-5.7
	S2324.91,1636.33,2324.11,1634.41z M3788.61,2003.5l-1024,1024c-48.01,48.01-113.12,74.98-181.02,74.98s-133.01-26.97-181.02-74.98
	c-48.01-48.01-74.98-113.12-74.98-181.02s26.97-133.01,74.98-181.02l1024-1024c48.01-48.01,113.12-74.98,181.02-74.98
	s133.01,26.97,181.02,74.98c48.01,48.01,74.98,113.12,74.98,181.02C3863.59,1890.38,3836.62,1955.49,3788.61,2003.5z"/>
<g>
</g>
<g>
</g>
<g>
</g>
<g>
</g>
<g>
</g>
</svg>
