<?xml version="1.0" encoding="utf-8"?>
<!-- Generator: Adobe Illustrator 26.0.1, SVG Export Plug-In . SVG Version: 6.00 Build 0)  -->
<svg version="1.1" id="small-black" xmlns="http://www.w3.org/2000/svg" xmlns:xlink="http://www.w3.org/1999/xlink" x="0px"
	 y="0px" viewBox="0 0 4096 4096" style="enable-background:new 0 0 4096 4096;" xml:space="preserve">
<path d="M1206.26,1792L1206.26,1792c-141.39,0-256,114.61-256,256v0c0,141.38,114.61,256,256,256h0c141.38,0,256-114.61,256-256v0
	C1462.26,1906.61,1347.64,1792,1206.26,1792z M1017.21,2108.19c-8.19,0-16.38-3.12-22.63-9.37c-12.5-12.5-12.5-32.76,0-45.25
	l128-128c12.5-12.5,32.76-12.5,45.25,0c12.5,12.5,12.5,32.76,0,45.25l-128,128C1033.59,2105.06,1025.39,2108.19,1017.21,2108.19z
	 M1229.41,2070.09l-61.05,64c-6.29,6.59-14.72,9.91-23.16,9.91c-7.94,0-15.89-2.93-22.08-8.85c-12.79-12.2-13.27-32.45-1.07-45.24
	l61.05-64c12.2-12.79,32.45-13.27,45.24-1.07C1241.13,2037.04,1241.61,2057.3,1229.41,2070.09z M1240.21,1994.84
	c-0.18-0.49-0.34-0.99-0.5-1.49c-0.15-0.49-0.29-1-0.42-1.51c-0.12-0.5-0.24-1.01-0.34-1.52c-0.11-0.52-0.2-1.04-0.27-1.55
	c-0.08-0.52-0.15-1.04-0.2-1.56c-0.05-0.52-0.09-1.05-0.12-1.57s-0.04-1.05-0.04-1.58c0-0.52,0.01-1.05,0.04-1.57
	c0.03-0.53,0.07-1.05,0.12-1.57c0.05-0.52,0.12-1.05,0.2-1.56c0.07-0.52,0.16-1.04,0.27-1.55c0.1-0.51,0.22-1.02,0.34-1.53
	c0.13-0.5,0.27-1.01,0.42-1.51c0.16-0.5,0.32-1,0.5-1.49c0.17-0.49,0.36-0.98,0.56-1.46c0.2-0.48,0.41-0.96,0.64-1.43
	c0.22-0.47,0.45-0.94,0.7-1.4c0.24-0.46,0.5-0.92,0.77-1.36c0.27-0.45,0.55-0.9,0.83-1.33c0.29-0.44,0.6-0.87,0.91-1.29
	c0.31-0.42,0.63-0.84,0.96-1.24c0.33-0.4,0.68-0.81,1.03-1.19c0.35-0.39,0.71-0.78,1.08-1.15c0.37-0.37,0.76-0.73,1.15-1.08
	c0.38-0.35,0.79-0.7,1.19-1.03s0.82-0.65,1.24-0.96c0.42-0.31,0.85-0.61,1.29-0.9c0.43-0.29,0.88-0.57,1.32-0.84
	c0.45-0.27,0.91-0.52,1.37-0.77c0.46-0.24,0.93-0.48,1.4-0.7c0.47-0.22,0.95-0.44,1.43-0.63c0.48-0.2,0.97-0.39,1.46-0.57
	c0.49-0.17,0.99-0.34,1.49-0.49s1-0.3,1.51-0.42c0.5-0.13,1.02-0.25,1.53-0.35c0.51-0.1,1.03-0.19,1.54-0.27
	c0.52-0.08,1.04-0.15,1.56-0.2c0.52-0.05,1.05-0.09,1.57-0.12c1.05-0.05,2.11-0.05,3.16,0c0.52,0.03,1.05,0.07,1.57,0.12
	c0.52,0.05,1.04,0.12,1.56,0.2c0.51,0.08,1.03,0.17,1.54,0.27c0.51,0.1,1.03,0.22,1.53,0.35c0.51,0.12,1.01,0.27,1.51,0.42
	s1,0.32,1.49,0.49c0.49,0.18,0.98,0.37,1.46,0.57c0.48,0.19,0.96,0.41,1.43,0.63c0.47,0.22,0.94,0.46,1.4,0.7
	c0.46,0.25,0.92,0.5,1.37,0.77c0.44,0.27,0.89,0.55,1.32,0.84c0.44,0.29,0.87,0.59,1.29,0.9c0.42,0.31,0.84,0.63,1.24,0.96
	s0.81,0.68,1.19,1.03c0.39,0.35,0.78,0.71,1.15,1.08c0.37,0.37,0.73,0.76,1.08,1.15c0.35,0.38,0.7,0.79,1.03,1.19
	c0.33,0.4,0.65,0.82,0.96,1.24c0.31,0.42,0.62,0.85,0.9,1.29c0.29,0.43,0.57,0.88,0.84,1.33c0.27,0.44,0.53,0.9,0.77,1.36
	c0.24,0.46,0.48,0.93,0.7,1.4c0.23,0.47,0.44,0.95,0.64,1.43c0.2,0.48,0.39,0.97,0.56,1.46c0.18,0.49,0.34,0.99,0.49,1.49
	c0.16,0.5,0.3,1.01,0.43,1.51c0.12,0.51,0.24,1.02,0.34,1.53c0.11,0.51,0.2,1.03,0.27,1.55c0.08,0.51,0.15,1.04,0.2,1.56
	c0.05,0.52,0.09,1.04,0.12,1.57c0.03,0.52,0.04,1.05,0.04,1.57c0,0.53-0.01,1.06-0.04,1.58c-0.03,0.52-0.07,1.05-0.12,1.57
	c-0.05,0.52-0.12,1.04-0.2,1.56c-0.07,0.51-0.16,1.03-0.27,1.55c-0.1,0.51-0.22,1.02-0.34,1.52c-0.13,0.51-0.27,1.02-0.43,1.51
	c-0.15,0.5-0.31,1-0.49,1.49c-0.17,0.49-0.36,0.98-0.56,1.46c-0.2,0.48-0.41,0.96-0.64,1.43c-0.22,0.47-0.46,0.95-0.7,1.4
	c-0.24,0.46-0.5,0.92-0.77,1.37c-0.27,0.45-0.55,0.89-0.84,1.33c-0.28,0.43-0.59,0.86-0.9,1.28c-0.31,0.42-0.63,0.84-0.96,1.24
	c-0.33,0.41-0.68,0.81-1.03,1.2s-0.71,0.77-1.08,1.14s-0.76,0.74-1.15,1.09c-0.38,0.35-0.79,0.69-1.19,1.02s-0.82,0.66-1.24,0.97
	c-0.42,0.31-0.85,0.61-1.29,0.9c-0.43,0.29-0.88,0.57-1.32,0.83c-0.45,0.27-0.91,0.53-1.37,0.77c-0.46,0.25-0.93,0.48-1.4,0.71
	c-0.47,0.22-0.95,0.43-1.43,0.63s-0.97,0.39-1.46,0.56c-0.49,0.18-0.99,0.35-1.49,0.5s-1,0.29-1.51,0.42
	c-0.5,0.13-1.02,0.24-1.53,0.35c-0.51,0.1-1.03,0.19-1.54,0.27c-0.52,0.08-1.04,0.14-1.56,0.19c-0.52,0.06-1.05,0.1-1.57,0.12
	c-0.53,0.03-1.06,0.04-1.58,0.04s-1.05-0.01-1.58-0.04c-0.52-0.02-1.05-0.06-1.57-0.12c-0.52-0.05-1.04-0.11-1.56-0.19
	c-0.51-0.08-1.03-0.17-1.54-0.27c-0.51-0.11-1.03-0.22-1.53-0.35c-0.51-0.13-1.01-0.27-1.51-0.42s-1-0.32-1.49-0.5
	c-0.49-0.17-0.98-0.36-1.46-0.56c-0.48-0.2-0.96-0.41-1.43-0.63c-0.47-0.23-0.94-0.46-1.4-0.71c-0.46-0.24-0.92-0.5-1.37-0.77
	c-0.44-0.26-0.89-0.54-1.32-0.83c-0.44-0.29-0.87-0.59-1.29-0.9c-0.42-0.31-0.84-0.64-1.24-0.97s-0.81-0.67-1.19-1.02
	c-0.39-0.35-0.78-0.72-1.15-1.09s-0.73-0.75-1.08-1.14s-0.7-0.79-1.03-1.2c-0.33-0.4-0.65-0.82-0.96-1.24
	c-0.31-0.42-0.62-0.85-0.91-1.28c-0.28-0.44-0.56-0.88-0.83-1.33c-0.27-0.45-0.53-0.91-0.77-1.37c-0.25-0.45-0.48-0.93-0.7-1.4
	c-0.23-0.47-0.44-0.95-0.64-1.43C1240.57,1995.82,1240.38,1995.33,1240.21,1994.84z M1423.83,2042.44l-128,128
	c-6.25,6.25-14.44,9.37-22.63,9.37s-16.38-3.12-22.63-9.37c-12.5-12.5-12.5-32.76,0-45.25l128-128c12.5-12.5,32.76-12.5,45.25,0
	C1436.33,2009.68,1436.33,2029.94,1423.83,2042.44z"/>
<g>
	<path d="M1525.78,1856.67h81.7l0,300.99h-81.7L1525.78,1856.67z"/>
	<path d="M1651.19,1896.48c0-22.47,18.13-39.81,45.73-39.81c27.59,0,45.73,16.16,45.73,38.63c0,23.65-18.13,41-45.73,41
		C1669.32,1936.3,1651.19,1918.95,1651.19,1896.48z M1656.07,1955.73h81.7v201.93h-81.7V1955.73z"/>
	<path d="M1786.35,1856.67h81.7l0,300.99h-81.7L1786.35,1856.67z"/>
	<path d="M1984.58,1924.18h-92.45v-67.51h269.61v67.51h-92.02v233.49h-85.14V1924.18z"/>
	<path d="M2170.76,2040.71c0-70.09,55.47-119.97,131.58-119.97c76.97,0,131.58,49.88,131.58,119.97
		c0,70.52-54.61,120.83-131.58,120.83C2226.23,2161.53,2170.76,2111.23,2170.76,2040.71z M2351.36,2040.71
		c0-35.26-21.07-55.04-49.02-55.04c-27.52,0-49.02,19.78-49.02,55.04c0,35.69,21.5,55.9,49.02,55.9
		C2330.29,2096.61,2351.36,2076.4,2351.36,2040.71z"/>
	<path d="M2452.84,2040.71c0-70.09,55.47-119.97,131.58-119.97c76.97,0,131.58,49.88,131.58,119.97
		c0,70.52-54.61,120.83-131.58,120.83C2508.31,2161.53,2452.84,2111.23,2452.84,2040.71z M2633.44,2040.71
		c0-35.26-21.07-55.04-49.02-55.04c-27.52,0-49.02,19.78-49.02,55.04c0,35.69,21.5,55.9,49.02,55.9
		C2612.36,2096.61,2633.44,2076.4,2633.44,2040.71z"/>
	<path d="M2997.64,2024.37v133.3h-81.7V2037.7c0-33.54-14.62-47.73-38.27-47.73c-26.23,0-46.44,16.34-46.44,55.04v112.66h-81.7
		v-233.06h77.83v25.37c18.49-19.35,44.72-29.24,73.96-29.24C2955.93,1920.74,2997.64,1952.13,2997.64,2024.37z"/>
</g>
<g>
	<path d="M1532.92,2193.48v31.08h40.91v7.23h-40.91v33.56h-8.36v-79.1h54.24v7.23H1532.92z"/>
	<path d="M1646.15,2238.11h-49.72c0.9,12.43,10.4,20.68,23.39,20.68c7.23,0,13.67-2.6,18.19-7.8l4.52,5.2
		c-5.31,6.33-13.56,9.72-22.94,9.72c-18.53,0-31.19-12.66-31.19-30.29s12.32-30.17,29.04-30.17c16.72,0,28.82,12.32,28.82,30.17
		C1646.26,2236.3,1646.15,2237.21,1646.15,2238.11z M1596.43,2232.12h42.15c-1.02-11.64-9.49-19.78-21.13-19.78
		C1605.92,2212.35,1597.45,2220.48,1596.43,2232.12z"/>
	<path d="M1707.51,2228.51v36.84h-7.68v-9.27c-3.62,6.1-10.62,9.83-20.45,9.83c-13.45,0-21.7-7.01-21.7-17.29
		c0-9.15,5.88-16.84,22.94-16.84h18.87v-3.62c0-10.17-5.76-15.71-16.84-15.71c-7.68,0-14.92,2.71-19.78,7.01l-3.62-5.99
		c5.99-5.08,14.8-8.02,24.18-8.02C1698.81,2205.45,1707.51,2213.14,1707.51,2228.51z M1699.48,2247.49v-9.72h-18.65
		c-11.53,0-15.26,4.52-15.26,10.62c0,6.89,5.54,11.19,15.03,11.19C1689.65,2259.58,1696.32,2255.29,1699.48,2247.49z"/>
	<path d="M1760.62,2261.73c-3.16,2.83-7.91,4.18-12.54,4.18c-11.19,0-17.4-6.33-17.4-17.29v-35.94h-10.62v-6.78h10.62v-13h8.02v13
		h18.08v6.78h-18.08v35.48c0,7.01,3.62,10.85,10.28,10.85c3.28,0,6.55-1.02,8.81-3.05L1760.62,2261.73z"/>
	<path d="M1828.76,2205.91v59.44h-7.68v-10.85c-4.18,7.23-11.87,11.41-21.36,11.41c-15.14,0-25.09-8.48-25.09-25.54v-34.47h8.02
		v33.68c0,12.66,6.55,19.1,17.85,19.1c12.43,0,20.23-8.02,20.23-21.58v-31.19H1828.76z"/>
	<path d="M1881.19,2205.45v7.8c-0.68,0-1.36-0.11-1.92-0.11c-12.43,0-20,7.91-20,21.92v30.29h-8.02v-59.44h7.68v11.64
		C1862.65,2209.64,1870.22,2205.45,1881.19,2205.45z"/>
	<path d="M1948.31,2238.11h-49.72c0.9,12.43,10.4,20.68,23.39,20.68c7.23,0,13.67-2.6,18.19-7.8l4.52,5.2
		c-5.31,6.33-13.56,9.72-22.94,9.72c-18.53,0-31.19-12.66-31.19-30.29s12.32-30.17,29.04-30.17c16.72,0,28.82,12.32,28.82,30.17
		C1948.42,2236.3,1948.31,2237.21,1948.31,2238.11z M1898.58,2232.12h42.15c-1.02-11.64-9.49-19.78-21.13-19.78
		C1908.08,2212.35,1899.6,2220.48,1898.58,2232.12z"/>
	<path d="M1960.39,2231.22H1990v7.01h-29.61V2231.22z"/>
	<path d="M2037.91,2205.45v7.8c-0.68,0-1.36-0.11-1.92-0.11c-12.43,0-20,7.91-20,21.92v30.29h-8.02v-59.44h7.68v11.64
		C2019.38,2209.64,2026.95,2205.45,2037.91,2205.45z"/>
	<path d="M2051.47,2187.15c0-3.05,2.6-5.65,5.88-5.65s5.88,2.49,5.88,5.54c0,3.28-2.49,5.88-5.88,5.88
		C2054.07,2192.91,2051.47,2190.31,2051.47,2187.15z M2053.28,2205.91h8.02v59.44h-8.02V2205.91z"/>
	<path d="M2077.68,2235.63c0-17.74,12.88-30.17,30.62-30.17c10.06,0,18.53,3.96,23.28,11.75l-5.99,4.07
		c-4.07-5.99-10.4-8.81-17.29-8.81c-13,0-22.49,9.27-22.49,23.17c0,14.01,9.49,23.17,22.49,23.17c6.89,0,13.22-2.71,17.29-8.7
		l5.99,4.07c-4.75,7.68-13.22,11.75-23.28,11.75C2090.57,2265.91,2077.68,2253.37,2077.68,2235.63z"/>
	<path d="M2201.99,2230.88v34.47h-8.02v-33.68c0-12.54-6.55-18.99-17.86-18.99c-12.77,0-20.79,7.91-20.79,21.47v31.19h-8.02v-83.85
		h8.02v34.81c4.41-6.89,12.21-10.85,22.26-10.85C2192.04,2205.45,2201.99,2213.82,2201.99,2230.88z"/>
	<path d="M2270.46,2193.48h-27.8v-7.23h63.96v7.23h-27.8v71.87h-8.36V2193.48z"/>
	<path d="M2312.27,2235.63c0-17.63,12.88-30.17,30.29-30.17c17.4,0,30.17,12.54,30.17,30.17s-12.77,30.29-30.17,30.29
		C2325.15,2265.91,2312.27,2253.26,2312.27,2235.63z M2364.59,2235.63c0-13.9-9.38-23.17-22.04-23.17
		c-12.66,0-22.15,9.27-22.15,23.17s9.49,23.17,22.15,23.17C2355.21,2258.79,2364.59,2249.53,2364.59,2235.63z"/>
	<path d="M2383.12,2235.63c0-17.63,12.88-30.17,30.29-30.17s30.17,12.54,30.17,30.17s-12.77,30.29-30.17,30.29
		S2383.12,2253.26,2383.12,2235.63z M2435.44,2235.63c0-13.9-9.38-23.17-22.04-23.17c-12.66,0-22.15,9.27-22.15,23.17
		s9.49,23.17,22.15,23.17C2426.06,2258.79,2435.44,2249.53,2435.44,2235.63z"/>
	<path d="M2514.65,2230.88v34.47h-8.02v-33.68c0-12.54-6.55-18.99-17.86-18.99c-12.77,0-20.79,7.91-20.79,21.47v31.19h-8.02v-59.44
		h7.68v10.96c4.29-7.23,12.32-11.41,22.6-11.41C2504.71,2205.45,2514.65,2213.82,2514.65,2230.88z"/>
	<path d="M2557.81,2258.57l3.62-6.33c4.75,3.73,12.77,6.67,21.13,6.67c11.3,0,15.93-3.84,15.93-9.72c0-15.48-38.54-3.28-38.54-26.78
		c0-9.72,8.36-16.95,23.51-16.95c7.68,0,16.05,2.15,21.02,5.54l-3.5,6.44c-5.2-3.62-11.41-5.08-17.52-5.08
		c-10.74,0-15.48,4.18-15.48,9.83c0,16.05,38.54,3.96,38.54,26.78c0,10.28-9.04,16.95-24.52,16.95
		C2572.17,2265.91,2562.67,2262.75,2557.81,2258.57z"/>
	<path d="M2676.02,2230.88v34.47h-8.02v-33.68c0-12.54-6.55-18.99-17.86-18.99c-12.77,0-20.79,7.91-20.79,21.47v31.19h-8.02v-83.85
		h8.02v34.81c4.41-6.89,12.21-10.85,22.26-10.85C2666.07,2205.45,2676.02,2213.82,2676.02,2230.88z"/>
	<path d="M2742.68,2228.51v36.84H2735v-9.27c-3.62,6.1-10.62,9.83-20.45,9.83c-13.45,0-21.7-7.01-21.7-17.29
		c0-9.15,5.88-16.84,22.94-16.84h18.87v-3.62c0-10.17-5.76-15.71-16.84-15.71c-7.68,0-14.92,2.71-19.78,7.01l-3.62-5.99
		c5.99-5.08,14.8-8.02,24.18-8.02C2733.98,2205.45,2742.68,2213.14,2742.68,2228.51z M2734.66,2247.49v-9.72h-18.65
		c-11.53,0-15.26,4.52-15.26,10.62c0,6.89,5.54,11.19,15.03,11.19C2724.83,2259.58,2731.5,2255.29,2734.66,2247.49z"/>
	<path d="M2818.73,2181.5v83.85h-7.68v-11.75c-4.86,8.02-13.11,12.32-22.94,12.32c-16.95,0-29.61-12.32-29.61-30.29
		s12.66-30.17,29.61-30.17c9.49,0,17.63,4.07,22.6,11.75v-35.71H2818.73z M2810.82,2235.63c0-13.9-9.49-23.17-22.04-23.17
		c-12.66,0-22.15,9.27-22.15,23.17s9.49,23.17,22.15,23.17C2801.33,2258.79,2810.82,2249.53,2810.82,2235.63z"/>
	<path d="M2892.86,2238.11h-49.72c0.9,12.43,10.4,20.68,23.39,20.68c7.23,0,13.67-2.6,18.19-7.8l4.52,5.2
		c-5.31,6.33-13.56,9.72-22.94,9.72c-18.53,0-31.19-12.66-31.19-30.29s12.32-30.17,29.04-30.17c16.72,0,28.82,12.32,28.82,30.17
		C2892.97,2236.3,2892.86,2237.21,2892.86,2238.11z M2843.14,2232.12h42.15c-1.02-11.64-9.49-19.78-21.13-19.78
		C2852.63,2212.35,2844.15,2220.48,2843.14,2232.12z"/>
	<path d="M2939.3,2205.45v7.8c-0.68,0-1.36-0.11-1.92-0.11c-12.43,0-20,7.91-20,21.92v30.29h-8.02v-59.44h7.68v11.64
		C2920.77,2209.64,2928.34,2205.45,2939.3,2205.45z"/>
	<path d="M2946.42,2258.57l3.62-6.33c4.75,3.73,12.77,6.67,21.13,6.67c11.3,0,15.93-3.84,15.93-9.72c0-15.48-38.54-3.28-38.54-26.78
		c0-9.72,8.36-16.95,23.51-16.95c7.68,0,16.05,2.15,21.02,5.54l-3.5,6.44c-5.2-3.62-11.41-5.08-17.52-5.08
		c-10.74,0-15.48,4.18-15.48,9.83c0,16.05,38.54,3.96,38.54,26.78c0,10.28-9.04,16.95-24.52,16.95
		C2960.77,2265.91,2951.28,2262.75,2946.42,2258.57z"/>
</g>
<g>
</g>
<g>
</g>
<g>
</g>
<g>
</g>
<g>
</g>
</svg>
