<?xml version="1.0" encoding="UTF-8" standalone="no"?>
<!DOCTYPE svg PUBLIC "-//W3C//DTD SVG 1.1//EN" "http://www.w3.org/Graphics/SVG/1.1/DTD/svg11.dtd">
<svg width="100%" height="100%" viewBox="0 0 4096 4096" version="1.1" xmlns="http://www.w3.org/2000/svg" xmlns:xlink="http://www.w3.org/1999/xlink" xml:space="preserve" xmlns:serif="http://www.serif.com/" style="fill-rule:evenodd;clip-rule:evenodd;stroke-linejoin:round;stroke-miterlimit:2;">
    <path id="icon-black" d="M2048,0C916.92,0 0,916.92 0,2048C0,3179.08 916.92,4096 2048,4096C3179.08,4096 4096,3179.08 4096,2048C4096,916.92 3179.08,0 2048,0ZM535.59,2529.52C467.69,2529.52 402.58,2502.55 354.57,2454.54C306.56,2406.53 279.59,2341.42 279.59,2273.52C279.59,2205.62 306.56,2140.51 354.57,2092.5L1378.57,1068.5C1426.58,1020.49 1491.69,993.52 1559.59,993.52C1627.49,993.52 1692.6,1020.49 1740.61,1068.5C1788.62,1116.51 1815.59,1181.62 1815.59,1249.52C1815.59,1317.42 1788.62,1382.53 1740.61,1430.54L716.61,2454.54C668.6,2502.55 603.49,2529.52 535.59,2529.52ZM2233.24,2224.7L1744.83,2736.7C1697.97,2785.83 1633.5,2814.33 1565.63,2815.93C1563.62,2815.98 1561.6,2816 1559.59,2816C1493.86,2816 1430.57,2790.71 1382.9,2745.24C1333.77,2698.38 1305.27,2633.91 1303.67,2566.04C1302.07,2498.16 1327.5,2432.43 1374.36,2383.3L1862.77,1871.3C1909.63,1822.17 1974.09,1793.67 2041.97,1792.07C2109.87,1790.49 2175.58,1815.9 2224.71,1862.76C2273.84,1909.62 2302.34,1974.08 2303.94,2041.96C2305.53,2109.84 2280.1,2175.57 2233.24,2224.7ZM2324.11,1634.41C2323.32,1632.49 2322.53,1630.54 2321.79,1628.6C2321.04,1626.66 2320.3,1624.68 2319.6,1622.73C2318.9,1620.77 2318.21,1618.78 2317.55,1616.8C2316.9,1614.83 2316.26,1612.82 2315.65,1610.83C2315.05,1608.84 2314.46,1606.82 2313.9,1604.81C2313.34,1602.81 2312.8,1600.77 2312.29,1598.75C2311.78,1596.74 2311.29,1594.68 2310.82,1592.66C2310.36,1590.62 2309.92,1588.56 2309.51,1586.52C2309.1,1584.48 2308.71,1582.4 2308.35,1580.35C2307.98,1578.3 2307.64,1576.21 2307.33,1574.15C2307.02,1572.09 2306.73,1569.99 2306.47,1567.93C2306.21,1565.85 2305.97,1563.75 2305.77,1561.68C2305.56,1559.6 2305.37,1557.49 2305.21,1555.41C2305.06,1553.32 2304.92,1551.2 2304.82,1549.12C2304.71,1547.03 2304.63,1544.9 2304.58,1542.81C2304.52,1540.72 2304.5,1538.59 2304.5,1536.5C2304.5,1534.4 2304.52,1532.28 2304.58,1530.18C2304.63,1528.09 2304.71,1525.97 2304.82,1523.88C2304.92,1521.79 2305.06,1519.68 2305.21,1517.59C2305.37,1515.51 2305.56,1513.4 2305.77,1511.32C2305.97,1509.25 2306.21,1507.14 2306.47,1505.07C2306.73,1503 2307.02,1500.91 2307.33,1498.85C2307.64,1496.79 2307.98,1494.7 2308.35,1492.65C2308.71,1490.6 2309.1,1488.52 2309.51,1486.48C2309.92,1484.44 2310.36,1482.37 2310.82,1480.34C2311.29,1478.31 2311.78,1476.26 2312.29,1474.24C2312.8,1472.23 2313.34,1470.19 2313.9,1468.18C2314.46,1466.18 2315.05,1464.16 2315.65,1462.17C2316.26,1460.18 2316.9,1458.17 2317.55,1456.2C2318.21,1454.22 2318.9,1452.23 2319.6,1450.27C2320.3,1448.32 2321.04,1446.34 2321.79,1444.4C2322.53,1442.46 2323.32,1440.51 2324.11,1438.58C2324.91,1436.66 2325.74,1434.73 2326.58,1432.83C2327.42,1430.93 2328.3,1429.01 2329.19,1427.13C2330.07,1425.25 2331,1423.35 2331.93,1421.5C2332.86,1419.64 2333.83,1417.76 2334.81,1415.93C2335.78,1414.09 2336.8,1412.24 2337.82,1410.43C2338.84,1408.62 2339.9,1406.79 2340.97,1405.01C2342.03,1403.22 2343.14,1401.42 2344.24,1399.66C2345.35,1397.9 2346.5,1396.13 2347.65,1394.39C2348.81,1392.66 2350,1390.91 2351.19,1389.21C2352.39,1387.5 2353.62,1385.79 2354.86,1384.11C2356.1,1382.43 2357.37,1380.74 2358.65,1379.1C2359.93,1377.45 2361.25,1375.79 2362.57,1374.18C2363.89,1372.56 2365.25,1370.94 2366.61,1369.35C2367.98,1367.77 2369.38,1366.18 2370.78,1364.63C2372.19,1363.07 2373.63,1361.52 2375.07,1360C2376.52,1358.48 2378,1356.96 2379.48,1355.48C2380.96,1354 2382.48,1352.52 2384,1351.07C2385.52,1349.63 2387.07,1348.19 2388.63,1346.78C2390.18,1345.38 2391.77,1343.98 2393.35,1342.62C2394.94,1341.25 2396.56,1339.89 2398.18,1338.57C2399.79,1337.25 2401.45,1335.93 2403.1,1334.65C2404.74,1333.37 2406.43,1332.1 2408.11,1330.86C2409.78,1329.62 2411.5,1328.39 2413.21,1327.19C2414.91,1326 2416.66,1324.81 2418.39,1323.65C2420.13,1322.5 2421.9,1321.35 2423.66,1320.24C2425.42,1319.14 2427.22,1318.03 2429.01,1316.97C2430.79,1315.9 2432.62,1314.84 2434.43,1313.82C2436.24,1312.8 2438.09,1311.79 2439.93,1310.81C2441.76,1309.83 2443.64,1308.86 2445.49,1307.93C2447.35,1307 2449.25,1306.07 2451.13,1305.19C2453.01,1304.3 2454.92,1303.42 2456.83,1302.58C2458.73,1301.74 2460.66,1300.91 2462.58,1300.11C2464.5,1299.32 2466.46,1298.54 2468.4,1297.79C2470.34,1297.04 2472.32,1296.3 2474.27,1295.6C2476.23,1294.9 2478.22,1294.21 2480.19,1293.56C2482.17,1292.9 2484.18,1292.26 2486.17,1291.66C2488.16,1291.05 2490.18,1290.46 2492.18,1289.9C2494.19,1289.34 2496.23,1288.8 2498.24,1288.29C2500.26,1287.78 2502.31,1287.29 2504.34,1286.83C2506.37,1286.37 2508.44,1285.92 2510.48,1285.51C2512.52,1285.1 2514.6,1284.71 2516.65,1284.35C2518.7,1283.99 2520.79,1283.65 2522.85,1283.33C2524.91,1283.02 2527,1282.73 2529.07,1282.47C2531.14,1282.21 2533.25,1281.98 2535.32,1281.77C2537.4,1281.56 2539.51,1281.37 2541.59,1281.21C2543.68,1281.06 2545.79,1280.92 2547.88,1280.82C2549.97,1280.71 2552.09,1280.63 2554.18,1280.58C2558.38,1280.47 2562.62,1280.47 2566.81,1280.58C2568.9,1280.63 2571.03,1280.71 2573.12,1280.82C2575.2,1280.92 2577.32,1281.06 2579.41,1281.21C2581.49,1281.37 2583.6,1281.56 2585.68,1281.77C2587.75,1281.98 2589.85,1282.21 2591.93,1282.47C2593.99,1282.73 2596.09,1283.02 2598.15,1283.33C2600.21,1283.65 2602.3,1283.99 2604.35,1284.35C2606.4,1284.71 2608.48,1285.1 2610.52,1285.51C2612.56,1285.92 2614.62,1286.37 2616.65,1286.83C2618.68,1287.29 2620.73,1287.78 2622.75,1288.29C2624.77,1288.8 2626.81,1289.34 2628.81,1289.9C2630.82,1290.46 2632.84,1291.05 2634.83,1291.66C2636.82,1292.26 2638.83,1292.9 2640.8,1293.56C2642.77,1294.21 2644.77,1294.9 2646.72,1295.6C2648.68,1296.3 2650.66,1297.04 2652.6,1297.79C2654.53,1298.54 2656.49,1299.32 2658.41,1300.11C2660.33,1300.91 2662.27,1301.74 2664.17,1302.58C2666.07,1303.42 2667.99,1304.3 2669.87,1305.19C2671.75,1306.07 2673.64,1307 2675.5,1307.93C2677.36,1308.86 2679.23,1309.83 2681.07,1310.81C2682.9,1311.79 2684.75,1312.8 2686.56,1313.82C2688.38,1314.84 2690.2,1315.9 2691.99,1316.97C2693.78,1318.03 2695.57,1319.14 2697.34,1320.24C2699.1,1321.35 2700.87,1322.5 2702.6,1323.65C2704.34,1324.81 2706.08,1326 2707.79,1327.19C2709.5,1328.39 2711.21,1329.62 2712.89,1330.86C2714.57,1332.1 2716.25,1333.37 2717.9,1334.65C2719.55,1335.93 2721.2,1337.25 2722.82,1338.57C2724.44,1339.89 2726.06,1341.25 2727.64,1342.62C2729.23,1343.98 2730.82,1345.38 2732.37,1346.78C2733.92,1348.19 2735.48,1349.63 2737,1351.07C2738.52,1352.52 2740.04,1354 2741.52,1355.48C2743,1356.96 2744.48,1358.48 2745.93,1360C2747.37,1361.52 2748.81,1363.07 2750.22,1364.63C2751.62,1366.18 2753.02,1367.77 2754.38,1369.35C2755.74,1370.94 2757.1,1372.56 2758.43,1374.18C2759.75,1375.79 2761.06,1377.45 2762.34,1379.1C2763.62,1380.74 2764.9,1382.43 2766.14,1384.11C2767.37,1385.79 2768.61,1387.5 2769.81,1389.21C2771,1390.91 2772.19,1392.66 2773.34,1394.39C2774.5,1396.13 2775.64,1397.9 2776.75,1399.66C2777.86,1401.42 2778.96,1403.22 2780.03,1405.01C2781.1,1406.79 2782.15,1408.62 2783.18,1410.43C2784.2,1412.24 2785.21,1414.09 2786.19,1415.93C2787.17,1417.76 2788.14,1419.64 2789.07,1421.5C2790,1423.35 2790.92,1425.25 2791.81,1427.13C2792.7,1429.01 2793.57,1430.93 2794.42,1432.83C2795.26,1434.73 2796.09,1436.66 2796.88,1438.58C2797.68,1440.51 2798.46,1442.46 2799.21,1444.4C2799.96,1446.34 2800.69,1448.32 2801.4,1450.27C2802.1,1452.23 2802.79,1454.22 2803.44,1456.2C2804.1,1458.17 2804.74,1460.18 2805.34,1462.17C2805.95,1464.16 2806.54,1466.18 2807.1,1468.18C2807.66,1470.19 2808.2,1472.23 2808.71,1474.24C2809.22,1476.26 2809.71,1478.31 2810.17,1480.34C2810.63,1482.37 2811.07,1484.44 2811.48,1486.48C2811.9,1488.52 2812.29,1490.6 2812.65,1492.65C2813.01,1494.7 2813.35,1496.79 2813.66,1498.85C2813.97,1500.91 2814.26,1503 2814.52,1505.07C2814.78,1507.14 2815.02,1509.25 2815.23,1511.32C2815.44,1513.4 2815.63,1515.51 2815.78,1517.59C2815.94,1519.68 2816.07,1521.79 2816.18,1523.88C2816.28,1525.97 2816.36,1528.09 2816.42,1530.18C2816.47,1532.28 2816.5,1534.4 2816.5,1536.5C2816.5,1538.59 2816.47,1540.72 2816.42,1542.81C2816.36,1544.9 2816.28,1547.03 2816.18,1549.12C2816.07,1551.2 2815.94,1553.32 2815.78,1555.41C2815.63,1557.49 2815.44,1559.6 2815.23,1561.68C2815.02,1563.75 2814.78,1565.85 2814.52,1567.93C2814.26,1569.99 2813.97,1572.09 2813.66,1574.15C2813.35,1576.21 2813.01,1578.3 2812.65,1580.35C2812.29,1582.4 2811.9,1584.48 2811.48,1586.52C2811.07,1588.56 2810.63,1590.62 2810.17,1592.66C2809.71,1594.68 2809.22,1596.74 2808.71,1598.75C2808.2,1600.77 2807.66,1602.81 2807.1,1604.81C2806.54,1606.82 2805.95,1608.84 2805.34,1610.83C2804.74,1612.82 2804.1,1614.83 2803.44,1616.8C2802.79,1618.78 2802.1,1620.77 2801.4,1622.73C2800.69,1624.68 2799.96,1626.66 2799.21,1628.6C2798.46,1630.54 2797.68,1632.49 2796.88,1634.41C2796.09,1636.33 2795.26,1638.27 2794.42,1640.17C2793.57,1642.07 2792.7,1643.99 2791.81,1645.87C2790.92,1647.75 2790,1649.65 2789.07,1651.5C2788.14,1653.36 2787.17,1655.23 2786.19,1657.07C2785.21,1658.91 2784.2,1660.76 2783.18,1662.57C2782.15,1664.38 2781.1,1666.2 2780.03,1667.99C2778.96,1669.78 2777.86,1671.58 2776.75,1673.34C2775.64,1675.1 2774.5,1676.87 2773.34,1678.6C2772.19,1680.34 2771,1682.08 2769.81,1683.79C2768.61,1685.5 2767.37,1687.21 2766.14,1688.89C2764.9,1690.57 2763.62,1692.25 2762.34,1693.9C2761.06,1695.55 2759.75,1697.2 2758.43,1698.82C2757.1,1700.44 2755.74,1702.06 2754.38,1703.64C2753.02,1705.23 2751.62,1706.82 2750.22,1708.37C2748.81,1709.92 2747.37,1711.48 2745.93,1713C2744.48,1714.52 2743,1716.04 2741.52,1717.52C2740.04,1719 2738.52,1720.48 2737,1721.93C2735.48,1723.37 2733.92,1724.81 2732.37,1726.22C2730.82,1727.62 2729.23,1729.02 2727.64,1730.38C2726.06,1731.74 2724.44,1733.1 2722.82,1734.43C2721.2,1735.75 2719.55,1737.06 2717.9,1738.35C2716.25,1739.62 2714.57,1740.9 2712.89,1742.14C2711.21,1743.38 2709.5,1744.61 2707.79,1745.81C2706.08,1747 2704.34,1748.19 2702.6,1749.34C2700.87,1750.5 2699.1,1751.64 2697.34,1752.75C2695.57,1753.86 2693.78,1754.97 2691.99,1756.03C2690.2,1757.1 2688.38,1758.16 2686.56,1759.18C2684.75,1760.2 2682.9,1761.21 2681.07,1762.19C2679.23,1763.17 2677.36,1764.14 2675.5,1765.07C2673.64,1766 2671.75,1766.92 2669.87,1767.81C2667.99,1768.7 2666.07,1769.58 2664.17,1770.42C2662.27,1771.26 2660.33,1772.09 2658.41,1772.88C2656.49,1773.68 2654.53,1774.46 2652.6,1775.21C2650.66,1775.96 2648.68,1776.7 2646.72,1777.4C2644.77,1778.1 2642.77,1778.79 2640.8,1779.44C2638.83,1780.1 2636.82,1780.74 2634.83,1781.34C2632.84,1781.95 2630.82,1782.54 2628.81,1783.1C2626.81,1783.66 2624.77,1784.2 2622.75,1784.71C2620.73,1785.22 2618.68,1785.71 2616.65,1786.17C2614.62,1786.63 2612.56,1787.08 2610.52,1787.49C2608.48,1787.9 2606.4,1788.29 2604.35,1788.65C2602.3,1789.01 2600.21,1789.35 2598.15,1789.67C2596.09,1789.98 2593.99,1790.27 2591.93,1790.53C2589.85,1790.79 2587.75,1791.02 2585.68,1791.23C2583.6,1791.44 2581.49,1791.63 2579.41,1791.79C2577.32,1791.94 2575.2,1792.08 2573.12,1792.18C2571.03,1792.29 2568.9,1792.37 2566.81,1792.42C2564.72,1792.47 2562.59,1792.5 2560.5,1792.5C2558.4,1792.5 2556.28,1792.47 2554.18,1792.42C2552.09,1792.37 2549.97,1792.29 2547.88,1792.18C2545.79,1792.08 2543.68,1791.94 2541.59,1791.79C2539.51,1791.63 2537.4,1791.44 2535.32,1791.23C2533.25,1791.02 2531.14,1790.79 2529.07,1790.53C2527,1790.27 2524.91,1789.98 2522.85,1789.67C2520.79,1789.35 2518.7,1789.01 2516.65,1788.65C2514.6,1788.29 2512.52,1787.9 2510.48,1787.49C2508.44,1787.08 2506.37,1786.63 2504.34,1786.17C2502.31,1785.71 2500.26,1785.22 2498.24,1784.71C2496.23,1784.2 2494.19,1783.66 2492.18,1783.1C2490.18,1782.54 2488.16,1781.95 2486.17,1781.34C2484.18,1780.74 2482.17,1780.1 2480.19,1779.44C2478.22,1778.79 2476.23,1778.1 2474.27,1777.4C2472.32,1776.7 2470.34,1775.96 2468.4,1775.21C2466.46,1774.46 2464.5,1773.68 2462.58,1772.88C2460.66,1772.09 2458.73,1771.26 2456.83,1770.42C2454.92,1769.58 2453.01,1768.7 2451.13,1767.81C2449.25,1766.92 2447.35,1766 2445.49,1765.07C2443.64,1764.14 2441.76,1763.17 2439.93,1762.19C2438.09,1761.21 2436.24,1760.2 2434.43,1759.18C2432.62,1758.16 2430.79,1757.1 2429.01,1756.03C2427.22,1754.97 2425.42,1753.86 2423.66,1752.75C2421.9,1751.64 2420.13,1750.5 2418.39,1749.34C2416.66,1748.19 2414.91,1747 2413.21,1745.81C2411.5,1744.61 2409.78,1743.38 2408.11,1742.14C2406.43,1740.9 2404.74,1739.62 2403.1,1738.35C2401.45,1737.06 2399.79,1735.75 2398.18,1734.43C2396.56,1733.1 2394.94,1731.74 2393.35,1730.38C2391.77,1729.02 2390.18,1727.62 2388.63,1726.22C2387.07,1724.81 2385.52,1723.37 2384,1721.93C2382.48,1720.48 2380.96,1719 2379.48,1717.52C2378,1716.04 2376.52,1714.52 2375.07,1713C2373.63,1711.48 2372.19,1709.92 2370.78,1708.37C2369.38,1706.82 2367.98,1705.23 2366.61,1703.64C2365.25,1702.06 2363.89,1700.44 2362.57,1698.82C2361.25,1697.2 2359.93,1695.55 2358.65,1693.9C2357.37,1692.25 2356.1,1690.57 2354.86,1688.89C2353.62,1687.21 2352.39,1685.5 2351.19,1683.79C2350,1682.08 2348.81,1680.34 2347.65,1678.6C2346.5,1676.87 2345.35,1675.1 2344.24,1673.34C2343.14,1671.58 2342.03,1669.78 2340.97,1667.99C2339.9,1666.2 2338.84,1664.38 2337.82,1662.57C2336.8,1660.76 2335.78,1658.91 2334.81,1657.07C2333.83,1655.23 2332.86,1653.36 2331.93,1651.5C2331,1649.65 2330.07,1647.75 2329.19,1645.87C2328.3,1643.99 2327.42,1642.07 2326.58,1640.17C2325.74,1638.27 2324.91,1636.33 2324.11,1634.41ZM3788.61,2003.5L2764.61,3027.5C2716.6,3075.51 2651.49,3102.48 2583.59,3102.48C2515.69,3102.48 2450.58,3075.51 2402.57,3027.5C2354.56,2979.49 2327.59,2914.38 2327.59,2846.48C2327.59,2778.58 2354.56,2713.47 2402.57,2665.46L3426.57,1641.46C3474.58,1593.45 3539.69,1566.48 3607.59,1566.48C3675.49,1566.48 3740.6,1593.45 3788.61,1641.46C3836.62,1689.47 3863.59,1754.58 3863.59,1822.48C3863.59,1890.38 3836.62,1955.49 3788.61,2003.5Z" style="fill:white;fill-rule:nonzero;"/>
</svg>
